<?xml version="1.0" encoding="UTF-8" standalone="no"?>
<!-- Created with Inkscape (http://www.inkscape.org/) -->

<svg
   xmlns:dc="http://purl.org/dc/elements/1.1/"
   xmlns:cc="http://creativecommons.org/ns#"
   xmlns:rdf="http://www.w3.org/1999/02/22-rdf-syntax-ns#"
   xmlns:svg="http://www.w3.org/2000/svg"
   xmlns="http://www.w3.org/2000/svg"
   xmlns:sodipodi="http://sodipodi.sourceforge.net/DTD/sodipodi-0.dtd"
   xmlns:inkscape="http://www.inkscape.org/namespaces/inkscape"
   width="439.29126"
   height="126.45623"
   id="svg3063"
   version="1.1"
   inkscape:version="0.48.4 r9939"
   sodipodi:docname="logo.svg"
   inkscape:export-filename="/home/chromakode/dev/beenwake/been/art/logo.png"
   inkscape:export-xdpi="50"
   inkscape:export-ydpi="50">
  <defs
     id="defs3065" />
  <sodipodi:namedview
     id="base"
     pagecolor="#ffffff"
     bordercolor="#666666"
     borderopacity="1.0"
     inkscape:pageopacity="0.0"
     inkscape:pageshadow="2"
     inkscape:zoom="1"
     inkscape:cx="280.20913"
     inkscape:cy="54.586914"
     inkscape:document-units="px"
     inkscape:current-layer="layer1"
     showgrid="false"
     fit-margin-top="0"
     fit-margin-left="0"
     fit-margin-right="0"
     fit-margin-bottom="0"
     showguides="true"
     inkscape:guide-bbox="true"
     inkscape:window-width="1291"
     inkscape:window-height="810"
     inkscape:window-x="220"
     inkscape:window-y="24"
     inkscape:window-maximized="0" />
  <metadata
     id="metadata3068">
    <rdf:RDF>
      <cc:Work
         rdf:about="">
        <dc:format>image/svg+xml</dc:format>
        <dc:type
           rdf:resource="http://purl.org/dc/dcmitype/StillImage" />
        <dc:title></dc:title>
      </cc:Work>
    </rdf:RDF>
  </metadata>
  <g
     inkscape:label="Layer 1"
     inkscape:groupmode="layer"
     id="layer1"
     transform="translate(16.35992,-998.93353)">
    <g
       id="g3138"
       transform="translate(80,277.22806)">
      <path
         inkscape:connector-curvature="0"
         id="path3146"
         style="font-size:141.02961731px;font-style:normal;font-variant:normal;font-weight:bold;font-stretch:normal;text-align:start;line-height:125%;letter-spacing:0px;word-spacing:0px;writing-mode:lr-tb;text-anchor:start;opacity:0.75;color:#000000;fill:#000000;fill-opacity:1;fill-rule:nonzero;stroke:none;stroke-width:1.1906662;marker:none;visibility:visible;font-family:Ubuntu;-inkscape-font-specification:Ubuntu Bold"
         d="m 76.599129,800.47595 c -5.7e-5,-13.53879 -4.983098,-20.30821 -14.949139,-20.30826 -2.162494,5e-5 -4.324946,0.28211 -6.487362,0.84617 -2.068469,0.56418 -3.760822,1.26933 -5.077067,2.11545 l 0,38.21902 c 1.034186,0.18806 2.350461,0.3761 3.94883,0.56412 1.598299,0.094 3.337662,0.14105 5.218095,0.14103 5.735159,2e-5 10.060063,-1.97439 12.974725,-5.92324 2.914556,-3.9488 4.371861,-9.16689 4.371918,-15.65429 m 21.436502,0.56412 c -7.9e-5,5.92328 -0.893265,11.2824 -2.679563,16.07738 -1.692429,4.79502 -4.18395,8.88487 -7.474569,12.26957 -3.290757,3.38472 -7.333602,6.01727 -12.128547,7.89766 -4.795059,1.78638 -10.248199,2.67956 -16.359436,2.67956 -2.538571,0 -5.218131,-0.14103 -8.038688,-0.42308 -2.726602,-0.18805 -5.453172,-0.4701 -8.179718,-0.84618 -2.632574,-0.37608 -5.171105,-0.79917 -7.615599,-1.26927 -2.444528,-0.56412 -4.606979,-1.12823 -6.487363,-1.69235 l 0,-103.65677 21.013413,-3.38471 0,36.94976 c 2.350461,-1.03415 4.794972,-1.83331 7.33354,-2.39751 2.538493,-0.56404 5.265063,-0.8461 8.179718,-0.84618 5.265054,8e-5 9.919027,0.94028 13.961932,2.8206 4.042785,1.78644 7.427492,4.37198 10.154133,7.75663 2.726499,3.38477 4.794931,7.47462 6.205303,12.26957 1.410218,4.70104 2.115365,9.96614 2.115444,15.79532" />
      <path
         inkscape:connector-curvature="0"
         id="path3148"
         style="font-size:141.02961731px;font-style:normal;font-variant:normal;font-weight:bold;font-stretch:normal;text-align:start;line-height:125%;letter-spacing:0px;word-spacing:0px;writing-mode:lr-tb;text-anchor:start;opacity:0.75;color:#000000;fill:#000000;fill-opacity:1;fill-rule:nonzero;stroke:none;stroke-width:1.1906662;marker:none;visibility:visible;font-family:Ubuntu;-inkscape-font-specification:Ubuntu Bold"
         d="m 110.65999,801.60419 c -10e-6,-6.58134 0.9872,-12.31654 2.96162,-17.20561 2.06842,-4.98299 4.74798,-9.11986 8.03869,-12.41061 3.29067,-3.29062 7.05145,-5.78214 11.28237,-7.47457 4.32487,-1.69228 8.7438,-2.53846 13.25678,-2.53853 10.53016,7e-5 18.8509,3.24375 24.96224,9.73104 6.11121,6.3934 9.16685,15.84238 9.16693,28.34695 -8e-5,1.2223 -0.0471,2.58558 -0.14103,4.08986 -0.0941,1.41033 -0.18812,2.6796 -0.28206,3.8078 l -47.66801,0 c 0.47007,4.32494 2.49149,7.75665 6.06427,10.29516 3.57271,2.53855 8.36772,3.80782 14.38502,3.8078 3.85476,2e-5 7.61555,-0.32905 11.28237,-0.9872 3.76073,-0.75214 6.81637,-1.64533 9.16693,-2.67957 l 2.82059,17.06459 c -1.12831,0.56412 -2.63262,1.12824 -4.51295,1.69235 -1.88046,0.56412 -3.9959,1.03422 -6.34633,1.4103 -2.25653,0.4701 -4.70104,0.84617 -7.33354,1.12824 -2.6326,0.28205 -5.26515,0.42308 -7.89766,0.42308 -6.67544,0 -12.50466,-0.9872 -17.48767,-2.96162 -4.88905,-1.97441 -8.97891,-4.65397 -12.26958,-8.03869 -3.19668,-3.47871 -5.59418,-7.56857 -7.19251,-12.26957 -1.50432,-4.70096 -2.25648,-9.77803 -2.25647,-15.2312 m 49.36036,-8.03869 c -0.0941,-1.78633 -0.42314,-3.52569 -0.9872,-5.2181 -0.47016,-1.6923 -1.26932,-3.19661 -2.39751,-4.51294 -1.03427,-1.31622 -2.39755,-2.39745 -4.08986,-3.24368 -1.59838,-0.84612 -3.6198,-1.26921 -6.06427,-1.26927 -2.35053,6e-5 -4.37196,0.42315 -6.06427,1.26927 -1.69239,0.75221 -3.10269,1.78643 -4.23089,3.10265 -1.12827,1.31633 -2.02146,2.86765 -2.67957,4.65397 -0.56414,1.69241 -0.98723,3.43177 -1.26926,5.2181 l 27.78283,0" />
      <path
         inkscape:connector-curvature="0"
         id="path3150"
         style="font-size:141.02961731px;font-style:normal;font-variant:normal;font-weight:bold;font-stretch:normal;text-align:start;line-height:125%;letter-spacing:0px;word-spacing:0px;writing-mode:lr-tb;text-anchor:start;opacity:0.75;color:#000000;fill:#000000;fill-opacity:1;fill-rule:nonzero;stroke:none;stroke-width:1.1906662;marker:none;visibility:visible;font-family:Ubuntu;-inkscape-font-specification:Ubuntu Bold"
         d="m 193.01908,801.60419 c -1e-5,-6.58134 0.9872,-12.31654 2.96162,-17.20561 2.06842,-4.98299 4.74798,-9.11986 8.03869,-12.41061 3.29067,-3.29062 7.05146,-5.78214 11.28237,-7.47457 4.32487,-1.69228 8.7438,-2.53846 13.25678,-2.53853 10.53016,7e-5 18.8509,3.24375 24.96225,9.73104 6.11121,6.3934 9.16684,15.84238 9.16692,28.34695 -8e-5,1.2223 -0.0471,2.58558 -0.14103,4.08986 -0.0941,1.41033 -0.18811,2.6796 -0.28206,3.8078 l -47.66801,0 c 0.47007,4.32494 2.49149,7.75665 6.06427,10.29516 3.57272,2.53855 8.36772,3.80782 14.38503,3.8078 3.85475,2e-5 7.61554,-0.32905 11.28236,-0.9872 3.76073,-0.75214 6.81637,-1.64533 9.16693,-2.67957 l 2.82059,17.06459 c -1.12831,0.56412 -2.63262,1.12824 -4.51295,1.69235 -1.88046,0.56412 -3.9959,1.03422 -6.34633,1.4103 -2.25653,0.4701 -4.70104,0.84617 -7.33354,1.12824 -2.6326,0.28205 -5.26515,0.42308 -7.89766,0.42308 -6.67544,0 -12.50466,-0.9872 -17.48767,-2.96162 -4.88905,-1.97441 -8.9789,-4.65397 -12.26958,-8.03869 -3.19668,-3.47871 -5.59418,-7.56857 -7.19251,-12.26957 -1.50432,-4.70096 -2.25648,-9.77803 -2.25647,-15.2312 m 49.36037,-8.03869 c -0.0941,-1.78633 -0.42315,-3.52569 -0.98721,-5.2181 -0.47015,-1.6923 -1.26932,-3.19661 -2.39751,-4.51294 -1.03426,-1.31622 -2.39755,-2.39745 -4.08985,-3.24368 -1.59839,-0.84612 -3.61981,-1.26921 -6.06428,-1.26927 -2.35053,6e-5 -4.37195,0.42315 -6.06427,1.26927 -1.69239,0.75221 -3.10269,1.78643 -4.23089,3.10265 -1.12827,1.31633 -2.02145,2.86765 -2.67956,4.65397 -0.56415,1.69241 -0.98724,3.43177 -1.26927,5.2181 l 27.78284,0" />
      <path
         inkscape:connector-curvature="0"
         id="path3152"
         style="font-size:141.02961731px;font-style:normal;font-variant:normal;font-weight:bold;font-stretch:normal;text-align:start;line-height:125%;letter-spacing:0px;word-spacing:0px;writing-mode:lr-tb;text-anchor:start;opacity:0.75;color:#000000;fill:#000000;fill-opacity:1;fill-rule:nonzero;stroke:none;stroke-width:1.1906662;marker:none;visibility:visible;font-family:Ubuntu;-inkscape-font-specification:Ubuntu Bold"
         d="m 278.9039,766.48781 c 3.57274,-1.03414 8.1797,-1.97434 13.82091,-2.82059 5.64115,-0.94012 11.56439,-1.41022 17.76973,-1.41029 6.29927,7e-5 11.51736,0.84625 15.65429,2.53853 4.23082,1.59841 7.56852,3.90189 10.0131,6.91045 2.44444,3.00869 4.18381,6.58144 5.2181,10.71825 1.03414,4.13692 1.55125,8.74388 1.55132,13.8209 l 0,41.8858 -21.01341,0 0,-39.34726 c -5e-5,-6.76938 -0.89324,-11.56438 -2.67956,-14.38502 -1.78643,-2.82054 -5.12413,-4.23084 -10.01311,-4.23089 -1.50435,5e-5 -3.10269,0.0941 -4.795,0.28206 -1.69239,0.0941 -3.19671,0.2351 -4.51295,0.42308 l 0,57.25803 -21.01342,0 0,-71.64305" />
      <path
         sodipodi:nodetypes="csccscc"
         inkscape:connector-curvature="0"
         d="m -6.237033,836.89633 c 0,6.22169 -20.1747,11.26537 -45.06145,11.26537 -24.88674,0 -45.061437,-5.04368 -45.061437,-11.26537 l 0,-34.64185 c 0,-6.22168 20.174697,-11.26536 45.061437,-11.26536 24.88675,0 45.06145,5.04368 45.06145,11.26536 z"
         style="color:#000000;fill:#ff0000;fill-opacity:1;fill-rule:nonzero;stroke:none;stroke-width:2;marker:none;visibility:visible;display:inline;overflow:visible;enable-background:accumulate"
         id="path3976-9-5" />
      <path
         sodipodi:nodetypes="csccscc"
         inkscape:connector-curvature="0"
         d="m -6.237033,802.25448 c 0,6.22168 -20.1747,11.26536 -45.06145,11.26536 -24.88674,0 -45.061437,-5.04368 -45.061437,-11.26536 l 0,-34.6418 c 0,-6.22169 20.174697,-11.26537 45.061437,-11.26537 24.88675,0 45.06145,5.04368 45.06145,11.26537 z"
         style="color:#000000;fill:#fffc19;fill-opacity:1;fill-rule:nonzero;stroke:none;stroke-width:2;marker:none;visibility:visible;display:inline;overflow:visible;enable-background:accumulate"
         id="path3976-97-0" />
      <path
         sodipodi:nodetypes="csccscc"
         inkscape:connector-curvature="0"
         d="m -6.237033,767.61269 c 0,6.22168 -20.1747,11.26536 -45.06145,11.26536 -24.88674,0 -45.061437,-5.04368 -45.061437,-11.26536 l 0,-34.64185 c 0,-6.22169 20.174697,-11.26537 45.061437,-11.26537 24.88675,0 45.06145,5.04368 45.06145,11.26537 z"
         style="color:#000000;fill:#0971b2;fill-opacity:1;fill-rule:nonzero;stroke:none;stroke-width:2;marker:none;visibility:visible;display:inline;overflow:visible;enable-background:accumulate"
         id="path3976-97-7-5" />
    </g>
  </g>
</svg>
